/vscmnt/brussel_pixiu_data/_data_brussel/112/vsc11236/PredSimResults/SUBJ07opt3D/expIG/worker_12.mot
version=1
nRows=5
nColumns=50
inDegrees=yes
endheader
                time	         pelvis_tilt	         pelvis_list	     pelvis_rotation	           pelvis_tx	           pelvis_ty	           pelvis_tz	       hip_flexion_r	     hip_adduction_r	      hip_rotation_r	        knee_angle_r	       ankle_angle_r	         mtp_angle_r	       hip_flexion_l	     hip_adduction_l	      hip_rotation_l	        knee_angle_l	       ankle_angle_l	         mtp_angle_l	    lumbar_extension	      lumbar_bending	     lumbar_rotation	 ercspn_r/activation	 intobl_r/activation	 extobl_r/activation	    abd_r/activation	    add_r/activation	hamstrings_r/activation	bifemsh_r/activation	glut_max_r/activation	iliopsoas_r/activation	rect_fem_r/activation	  vasti_r/activation	gastroc_r/activation	 soleus_r/activation	tib_ant_r/activation	 ercspn_l/activation	 intobl_l/activation	 extobl_l/activation	    abd_l/activation	    add_l/activation	hamstrings_l/activation	bifemsh_l/activation	glut_max_l/activation	iliopsoas_l/activation	rect_fem_l/activation	  vasti_l/activation	gastroc_l/activation	 soleus_l/activation	tib_ant_l/activation	
          0.87604631	         -6.63157270	         -1.98935100	          6.22401062	          1.48927872	          0.84363676	         -0.00623656	         33.60535149	         -0.11742277	         -2.18015032	         -8.14491488	          5.92465817	          0.34950594	        -14.13789319	         -1.76493094	          2.63730679	        -12.36505069	          1.45376614	         35.05812069	        -13.63809516	          2.04347482	         -4.70686994	          0.15111595	          0.13321803	          0.00999999	          0.05751714	          0.15810570	          0.21971643	          0.28141045	          0.05420762	          0.05593701	          0.00999999	          0.00999999	          0.00999999	          0.00999999	          0.61423648	          0.11631512	          0.00999999	          0.00999999	          0.01664387	          0.07894112	          0.01945272	          0.10291874	          0.01595965	          0.22556669	          0.17016982	          0.02524078	          0.26381615	          0.18324952	          0.00999999	
          0.88480677	         -6.58702531	         -1.90094644	          6.26569411	          1.50692038	          0.84160856	         -0.00589676	         33.41431634	          0.02386560	         -1.79551374	         -9.76355759	          5.25092711	          0.33851566	        -15.26355629	         -1.80656825	          2.37604280	        -12.36270075	          0.04886469	         35.73145102	        -13.40694939	          2.21523403	         -4.88113974	          0.13186295	          0.11624531	          0.00999999	          0.05018914	          0.18817971	          0.19172334	          0.24555720	          0.15411000	          0.04881032	          0.01000000	          0.01000000	          0.01481589	          0.01313332	          0.55860916	          0.12151953	          0.00999999	          0.01000000	          0.01452335	          0.12173156	          0.02707841	          0.10051795	          0.01392630	          0.39212919	          0.14848924	          0.02202496	          0.23020451	          0.16379115	          0.00999999	
          0.89356723	         -6.54218927	         -1.80509182	          6.26885392	          1.52444889	          0.83960158	         -0.00554715	         33.22739623	          0.14424876	         -1.41548553	        -11.63611965	          4.76254932	          0.30916807	        -16.07831296	         -1.81201617	          2.08617427	        -12.94346036	         -1.19080875	         36.10171754	        -13.20352639	          2.39126609	         -5.02538719	          0.12465504	          0.10143502	          0.00999999	          0.13611796	          0.21881103	          0.16729673	          0.21427186	          0.20667436	          0.04259162	          0.00999999	          0.00999999	          0.01292827	          0.01146007	          0.72134960	          0.15768142	          0.00999999	          0.01000000	          0.01267299	          0.11209937	          0.02363590	          0.08771184	          0.01215201	          0.51763714	          0.12957089	          0.01921886	          0.20087518	          0.14292325	          0.00999999	
          0.90232770	         -6.49914724	         -1.70788268	          6.23333905	          1.54168791	          0.83782307	         -0.00515963	         33.05983507	          0.26682595	         -1.08918570	        -13.47244496	          4.15687891	          0.28093019	        -16.49173246	         -1.79220066	          1.78514414	        -14.23125044	         -2.28966504	         36.13541752	        -13.05064799	          2.57205040	         -5.13619663	          0.15390615	          0.08851164	          0.00999999	          0.20143746	          0.25391543	          0.14598220	          0.18697244	          0.26650214	          0.03716521	          0.00999999	          0.00999999	          0.01128114	          0.00999999	          0.77853331	          0.19798778	          0.00999999	          0.01000000	          0.01105839	          0.11580668	          0.02535950	          0.07653689	          0.01060378	          0.57759629	          0.11306285	          0.01677027	          0.17528258	          0.12471404	          0.00999999	
          0.91108816	         -6.45662534	         -1.61625549	          6.16395691	          1.55853307	          0.83643730	         -0.00474281	         32.96907538	          0.39748459	         -0.81558640	        -15.43828532	          3.79854867	          0.23996596	        -16.45749742	         -1.75877480	          1.49587681	        -16.26893192	         -3.34093654	         35.83759405	        -12.95770723	          2.76435197	         -5.21197862	          0.18207205	          0.07723477	          0.00999999	          0.26092037	          0.27030787	          0.12738326	          0.16315112	          0.31759221	          0.03243016	          0.00999999	          0.02598660	          0.00999999	          0.00999999	          0.75653743	          0.27230673	          0.00999999	          0.01000000	          0.00999999	          0.11535977	          0.02597702	          0.07444229	          0.00999999	          0.50400736	          0.09865802	          0.01463365	          0.15295061	          0.10882478	          0.00999999	
